<svg xmlns="http://www.w3.org/2000/svg" width="76" height="40.318" viewBox="0 0 76 40.318">
  <g id="_WINGSTATION_BI_크기_조절-02" data-name="[WINGSTATION] BI 크기 조절-02" transform="translate(0.01 0.001)">
    <path id="패스_50" data-name="패스 50" d="M54.542.274A.676.676,0,0,0,53.994,0H44.736a.725.725,0,0,0-.692.547L34.9,39.431a.708.708,0,0,0,.692.886H44.9a.725.725,0,0,0,.708-.547L54.686.886a.692.692,0,0,0-.145-.612Z" transform="translate(21.284 0)" fill="#ff9700"/>
    <path id="패스_51" data-name="패스 51" d="M29.515.548A.708.708,0,0,0,28.79,0H19.516a.692.692,0,0,0-.564.274.692.692,0,0,0-.145.612l9.081,38.884a.725.725,0,0,0,.708.547H37.9a.708.708,0,0,0,.692-.886Z" transform="translate(11.468 0)" fill="#ffce00"/>
    <path id="패스_52" data-name="패스 52" d="M19.13.547A.692.692,0,0,0,18.438,0H9.131a.692.692,0,0,0-.564.274.692.692,0,0,0-.129.612L17.52,39.769a.692.692,0,0,0,.692.547h9.306a.725.725,0,0,0,.708-.886Z" transform="translate(5.14 0)" fill="#ffce00"/>
    <path id="패스_53" data-name="패스 53" d="M10.037,7.37H.731a.692.692,0,0,0-.564.274.692.692,0,0,0-.161.612L4.1,26.385a.708.708,0,0,0,.692.564h9.306a.741.741,0,0,0,.564-.274.708.708,0,0,0,.145-.58L10.729,7.934A.725.725,0,0,0,10.037,7.37Z" transform="translate(0 4.497)" fill="#ffce00"/>
    <path id="패스_54" data-name="패스 54" d="M49.045,39.431,39.965.547A.725.725,0,0,0,39.272,0H29.95A.676.676,0,0,0,29.4.274a.692.692,0,0,0-.145.612l9.081,38.884a.725.725,0,0,0,.692.547h9.306a.725.725,0,0,0,.708-.886Z" transform="translate(17.844 0)" fill="#ffce00"/>
  </g>
</svg>
