<svg id="_WINGSTATION_BI_크기_조절-01" data-name="[WINGSTATION] BI 크기 조절-01" xmlns="http://www.w3.org/2000/svg" width="150" height="24.41" viewBox="0 0 150 24.41">
  <path id="패스_33" data-name="패스 33" d="M43.216.163a.434.434,0,0,0-.3-.163H37.246a.434.434,0,0,0-.423.336L31.331,23.879a.445.445,0,0,0,.076.369.423.423,0,0,0,.336.163h5.644a.423.423,0,0,0,.412-.336L43.3.532a.423.423,0,0,0-.087-.369Z" transform="translate(2.684 0)" fill="#ff9700"/>
  <path id="패스_34" data-name="패스 34" d="M23.357.336A.434.434,0,0,0,22.934,0H17.3a.434.434,0,0,0-.293.163.423.423,0,0,0-.087.369l5.514,23.531a.423.423,0,0,0,.412.336h5.644a.423.423,0,0,0,.336-.163.445.445,0,0,0,.076-.369Z" transform="translate(1.454 0)" fill="#ffce00"/>
  <path id="패스_35" data-name="패스 35" d="M14.036.336A.434.434,0,0,0,13.613,0H8.034A.456.456,0,0,0,7.7.163a.456.456,0,0,0-.087.369l5.5,23.531a.434.434,0,0,0,.423.336H19.17a.434.434,0,0,0,.369-.521Z" transform="translate(0.659 0)" fill="#ffce00"/>
  <path id="패스_36" data-name="패스 36" d="M6.068,6.62H.435A.434.434,0,0,0,.1,6.783a.412.412,0,0,0-.1.369L2.475,18.125a.434.434,0,0,0,.423.336H8.532a.434.434,0,0,0,.423-.575L6.513,6.957a.434.434,0,0,0-.445-.336Z" transform="translate(0.009 0.565)" fill="#ffce00"/>
  <path id="패스_37" data-name="패스 37" d="M38.233,23.879,32.741.336A.434.434,0,0,0,32.317,0H26.684a.434.434,0,0,0-.336.163.423.423,0,0,0-.087.369l5.5,23.531a.423.423,0,0,0,.412.336H37.82a.423.423,0,0,0,.336-.163A.445.445,0,0,0,38.233,23.879Z" transform="translate(2.252 0)" fill="#ffce00"/>
  <path id="패스_38" data-name="패스 38" d="M65.537,5.1l-4.07,14.11H58.211l-2.442-8.792-2.54,8.868H50.038L46,5.1h3.386l2.431,9.248L54.206,5.1h3.256l2.41,9.215L62.346,5.1Z" transform="translate(3.938 0.435)" fill="#231815"/>
  <path id="패스_39" data-name="패스 39" d="M68.558,5.1V19.21H65.4V5.1Z" transform="translate(5.595 0.435)" fill="#231815"/>
  <path id="패스_40" data-name="패스 40" d="M70.61,5.115H73.2l7.066,8.5V4.93h3.158V19.116H80.8l-7.066-8.5V19.3H70.61Z" transform="translate(6.039 0.421)" fill="#231815"/>
  <path id="패스_41" data-name="패스 41" d="M98.929,9.5H95.466A4.124,4.124,0,0,0,91.82,7.659,4.342,4.342,0,0,0,87.337,12.2a4.407,4.407,0,0,0,4.483,4.58,4.005,4.005,0,0,0,4.1-2.746H91.581V11.36h7.685V12.2a7.533,7.533,0,1,1-15.065,0,7.283,7.283,0,0,1,7.6-7.435A7.161,7.161,0,0,1,98.929,9.5Z" transform="translate(7.2 0.406)" fill="#231815"/>
  <path id="패스_42" data-name="패스 42" d="M106.371,13.545h-1.552a1.085,1.085,0,0,0-1.237-.933c-.706,0-1.085.282-1.085.684s.51.673,1.823.944c1.552.326,2.073,1.085,2.073,2.095,0,1.281-1.2,2.062-2.7,2.062a2.7,2.7,0,0,1-2.931-2.334h1.53a1.352,1.352,0,0,0,1.509,1.085c.608,0,1.085-.3,1.085-.738s-.445-.749-1.639-.977c-1.465-.271-2.247-.868-2.247-2.171s1.194-1.932,2.713-1.932a2.475,2.475,0,0,1,2.659,2.214Z" transform="translate(8.614 0.967)" fill="#878787"/>
  <path id="패스_43" data-name="패스 43" d="M112.2,12.834h-2.171v5.427h-1.5V12.834H106.36V11.51h5.861Z" transform="translate(9.092 0.983)" fill="#878787"/>
  <path id="패스_44" data-name="패스 44" d="M115.73,16.915h-2.572l-.467,1.3H111.15l2.594-6.708h1.585l2.594,6.708H116.2Zm-.456-1.3-.847-2.334-.836,2.334Z" transform="translate(9.501 0.983)" fill="#878787"/>
  <path id="패스_45" data-name="패스 45" d="M122.579,12.834h-2.171v5.427h-1.5V12.834H116.74V11.51h5.85Z" transform="translate(9.978 0.983)" fill="#878787"/>
  <path id="패스_46" data-name="패스 46" d="M124.368,11.51v6.708h-1.5V11.51Z" transform="translate(10.502 0.983)" fill="#878787"/>
  <path id="패스_47" data-name="패스 47" d="M125.07,14.883A3.625,3.625,0,1,1,128.7,18.41a3.473,3.473,0,0,1-3.625-3.528Zm5.753,0a2.171,2.171,0,1,0-4.255,0,2.171,2.171,0,1,0,4.255,0Z" transform="translate(10.69 0.953)" fill="#878787"/>
  <path id="패스_48" data-name="패스 48" d="M132.57,11.517h1.248l3.354,4.027V11.43h1.5v6.708h-1.292l-3.256-4.027v4.114h-1.5Z" transform="translate(11.33 0.976)" fill="#878787"/>
</svg>
