<svg xmlns="http://www.w3.org/2000/svg" width="16.604" height="16.604" viewBox="0 0 16.604 16.604">
  <path id="패스_6251" data-name="패스 6251" d="M12.3,13.34C9.531,13.34,4,14.73,4,17.491V20.6H20.6V17.491C20.6,14.73,15.073,13.34,12.3,13.34Zm6.33,5.292H5.972V17.491c0-.664,3.248-2.179,6.33-2.179s6.33,1.515,6.33,2.179ZM12.3,12.3A4.151,4.151,0,1,0,8.151,8.151,4.15,4.15,0,0,0,12.3,12.3Zm0-6.33a2.179,2.179,0,1,1-2.179,2.179A2.179,2.179,0,0,1,12.3,5.972Z" transform="translate(-4 -4)" fill="#6b6b6b"/>
</svg>
